<svg xmlns="http://www.w3.org/2000/svg" width="58" height="21" viewBox="0 0 58 21"><g fill="#fff"><path d="M0 .344h.4c1.06 0 4.61-.086 5.93-.086 8.017 0 11.253 4.61 11.253 9.937 0 5.614-3.837 10.252-11.483 10.252-1.06 0-3.694-.057-5.612-.057H0V.344zM4.582 4.64v11.455c.602.058 1.002.058 1.66.058 3.953 0 6.473-2.148 6.473-5.958 0-3.695-2.72-5.642-6.443-5.642-.487 0-1.117 0-1.69.086zM29.277 0c6.1 0 10.652 3.98 10.652 10.367 0 6.072-4.554 10.368-10.653 10.368-6.1 0-10.653-3.98-10.653-10.368C18.624 4.553 22.89 0 29.277 0zm0 16.438c3.81 0 5.784-2.692 5.784-6.072 0-3.666-2.548-6.072-5.783-6.072-3.322 0-5.785 2.406-5.785 6.072 0 3.438 2.578 6.072 5.785 6.072zM58 12.114c0 6.128-3.895 8.62-8.19 8.62-5.154 0-8.733-2.95-8.733-8.82V.344h4.582V10.94c0 3.122.943 5.5 4.15 5.5 2.778 0 3.608-2.034 3.608-5.242V.344H58v11.77z"/></g></svg>