<svg xmlns="http://www.w3.org/2000/svg" width="1024" height="1024" fill="#f88b02" viewBox="0 0 1024 1024"><path d="M331.776 783.36c0-50.176-40.96-91.136-91.136-91.136-49.152 0-90.112 40.96-90.112 91.136 0 49.152 40.96 90.112 90.112 90.112 50.176 0 91.136-40.96 91.136-90.112zm156.672 90.112h139.264c0-263.168-214.016-477.184-477.184-477.184v138.24c90.112 0 175.104 35.84 238.592 99.328 64.512 63.488 99.328 148.48 99.328 239.616zm245.76 0h139.264c0-398.336-324.608-722.944-722.944-722.944v138.24c321.536 0 583.68 262.144 583.68 584.704zM1024 90.112v843.776c0 49.152-40.96 90.112-90.112 90.112H90.112C40.96 1024 0 983.04 0 933.888V90.112C0 40.96 40.96 0 90.112 0h843.776C983.04 0 1024 40.96 1024 90.112z"/></svg>